<svg width="107" height="32" viewBox="0 0 107 32" fill="none" xmlns="http://www.w3.org/2000/svg">
<path d="M16.5303 0C25.3555 0 32.518 7.1232 32.518 15.9C32.518 24.6768 25.3555 31.8 16.5303 31.8C7.70518 31.8 0.542725 24.6768 0.542725 15.9C0.542725 7.1232 7.70518 0 16.5303 0ZM16.5303 4.1976C10.0074 4.1976 4.76346 9.4128 4.76346 15.9C4.76346 22.3872 10.0074 27.6024 16.5303 27.6024C23.0533 27.6024 28.2972 22.3872 28.2972 15.9C28.2972 9.4128 23.0533 4.1976 16.5303 4.1976ZM98.7067 10.7484C103.439 10.7484 106.828 14.1828 106.828 18.2532V18.3168C106.828 22.3872 103.439 25.8852 98.6428 25.8852C93.9104 25.8852 90.5211 22.4508 90.5211 18.3804V18.3168C90.5211 14.2464 93.9104 10.7484 98.7067 10.7484ZM43.6454 6.2964C43.8372 6.2328 44.0291 6.4236 44.0291 6.5508V11.13H52.5345C52.7263 11.13 52.8542 11.2572 52.9182 11.3844L53.6216 13.992L54.2611 16.5996L54.3251 16.7268L54.389 16.4724L55.9878 11.1936C56.0518 11.0664 56.2436 10.9392 56.3715 10.9392H60.5922C60.7841 10.9392 60.912 11.0664 60.9759 11.1936L62.6387 16.854L62.7026 16.5996L64.1095 11.3208C64.1735 11.1936 64.3653 11.0664 64.4932 11.0664H75.3648C75.4927 11.0664 75.6206 11.1936 75.6206 11.3844V25.2492C75.6206 25.3764 75.4927 25.5036 75.3648 25.5036H69.929C69.8011 25.5036 69.6732 25.3764 69.6732 25.2492V11.8932L65.5804 25.2492C65.5164 25.3764 65.3246 25.5036 65.1967 25.5036H60.7201C60.5283 25.5036 60.4004 25.3764 60.3364 25.2492L59.4411 22.4508L58.4819 19.398L56.5634 25.3128C56.4994 25.44 56.3076 25.5672 56.1797 25.5672H51.7031C51.5113 25.5672 51.3834 25.44 51.3194 25.3128L47.2905 12.0204V15.4548C47.2905 15.582 47.1626 15.7092 47.0347 15.7092H43.9651V19.3344C43.9651 20.4156 44.4767 20.7972 45.436 20.7972C45.9476 20.7972 46.3952 20.7336 46.9708 20.4792C47.0987 20.4792 47.2905 20.5428 47.2905 20.7336V24.9312C46.3313 25.44 44.9244 25.758 43.4535 25.758C39.9362 25.758 38.0177 24.1044 38.0177 20.6064V15.6456H36.6108C36.4829 15.6456 36.355 15.5184 36.355 15.3912V11.3208C36.355 11.1936 36.4829 11.0664 36.6108 11.0664H38.0177V8.2044C38.0177 8.0772 38.0817 8.0136 38.2735 7.95L43.6454 6.2964ZM82.5273 6.2328C82.6552 6.2328 82.7831 6.36 82.7831 6.4872V25.2492C82.7831 25.3764 82.6552 25.5036 82.5273 25.5036H77.0915C76.9636 25.5036 76.8357 25.3764 76.8357 25.2492V6.4872C76.8357 6.36 76.9636 6.2328 77.0915 6.2328H82.5273ZM89.6897 11.0664C89.8176 11.0664 89.9455 11.1936 89.9455 11.3844V25.2492C89.9455 25.3764 89.8176 25.5036 89.6897 25.5036H84.2539C84.126 25.5036 83.9981 25.3764 83.9981 25.2492V11.3208C83.9981 11.1936 84.126 11.0664 84.2539 11.0664H89.6897ZM20.4953 16.536C22.3319 16.536 23.8207 18.0167 23.8207 19.8432C23.8207 21.6697 22.3319 23.1504 20.4953 23.1504C18.6587 23.1504 17.1699 21.6697 17.1699 19.8432C17.1699 18.0167 18.6587 16.536 20.4953 16.536ZM12.5654 16.536C14.402 16.536 15.8908 18.0167 15.8908 19.8432C15.8908 21.6697 14.402 23.1504 12.5654 23.1504C10.7288 23.1504 9.23999 21.6697 9.23999 19.8432C9.23999 18.0167 10.7288 16.536 12.5654 16.536ZM98.6428 15.7092C97.2998 15.7092 96.3406 16.7904 96.3406 18.1896V18.2532C96.3406 19.6524 97.3638 20.7972 98.7067 20.7972C100.05 20.7972 101.009 19.716 101.009 18.3168C101.009 16.854 99.9857 15.7092 98.6428 15.7092ZM20.4953 8.6496C22.3319 8.6496 23.8207 10.1303 23.8207 11.9568C23.8207 13.7833 22.3319 15.264 20.4953 15.264C18.6587 15.264 17.1699 13.7833 17.1699 11.9568C17.1699 10.1303 18.6587 8.6496 20.4953 8.6496ZM12.5654 8.6496C14.402 8.6496 15.8908 10.1303 15.8908 11.9568C15.8908 13.7833 14.402 15.264 12.5654 15.264C10.7288 15.264 9.23999 13.7833 9.23999 11.9568C9.23999 10.1303 10.7288 8.6496 12.5654 8.6496ZM75.4287 6.2328C75.6206 6.2328 75.7485 6.36 75.6846 6.4872V9.7308C75.6846 9.858 75.5567 9.9852 75.4287 9.9852H69.8011C69.6732 9.9852 69.5453 9.858 69.5453 9.7308V6.4872C69.5453 6.36 69.6732 6.2328 69.8011 6.2328H75.4287ZM89.7537 6.2328C89.9455 6.2328 90.0734 6.36 90.0095 6.4872V9.7308C90.0095 9.858 89.8816 9.9852 89.7537 9.9852H84.126C83.9981 9.9852 83.8702 9.858 83.8702 9.7308V6.4872C83.8702 6.36 83.9981 6.2328 84.126 6.2328H89.7537Z" fill="#A7AAB4"/>
</svg>
